<?xml version="1.0" encoding="utf-8"?>
<!-- Generator: Adobe Illustrator 16.0.0, SVG Export Plug-In . SVG Version: 6.00 Build 0)  -->
<!DOCTYPE svg PUBLIC "-//W3C//DTD SVG 1.1//EN" "http://www.w3.org/Graphics/SVG/1.1/DTD/svg11.dtd">
<svg version="1.1" id="Layer_1" xmlns="http://www.w3.org/2000/svg" xmlns:xlink="http://www.w3.org/1999/xlink" x="0px" y="0px"
	 width="107px" height="33px" viewBox="0 0 107 33" enable-background="new 0 0 107 33" xml:space="preserve">
<title>Bolby</title>
<desc>Created with Sketch.</desc>
<g>
	<path fill="#FFFFFF" d="M21.426,15.996v12.972h-5.61v-5.319H8.08v5.319H2.555V15.996c0-7.413,3.825-11.531,9.436-11.531
		C17.601,4.465,21.426,8.583,21.426,15.996z M15.816,18.398v-2.986c0-3.638-1.587-5.319-3.854-5.319
		c-2.295,0-3.882,1.682-3.882,5.319v2.986H15.816z"/>
	<path fill="#FFFFFF" d="M35.258,10.059v5.868c-0.481-0.068-0.822-0.103-1.218-0.103c-2.182,0-3.684,1.339-3.684,4.599v8.545h-5.384
		v-18.6h5.129v2.23C31.207,10.917,32.992,10.059,35.258,10.059z"/>
	<path fill="#FFFFFF" d="M53.566,10.368v18.6h-5.129v-1.854c-1.02,1.476-2.522,2.162-4.534,2.162c-4.165,0-7.537-3.706-7.537-9.643
		c0-5.903,3.372-9.575,7.537-9.575c1.785,0,3.23,0.618,4.279,1.922v-1.613H53.566z M48.267,19.634c0-2.814-1.417-4.393-3.23-4.393
		s-3.23,1.578-3.23,4.393c0,2.848,1.417,4.461,3.23,4.461S48.267,22.481,48.267,19.634z"/>
	<path fill="#FFFFFF" d="M62.269,11.054h3.655v4.873H62.41v13.041h-5.384V10.574c0-4.461,2.295-7.378,6.403-7.378
		c1.304,0,2.692,0.309,3.57,0.961l-1.331,4.598c-0.454-0.309-1.021-0.549-1.615-0.549c-1.105,0-1.785,0.789-1.785,2.437V11.054z"/>
	<path fill="#FFFFFF" d="M83.976,10.368v18.6h-5.129v-1.854c-1.02,1.476-2.521,2.162-4.533,2.162c-4.166,0-7.538-3.706-7.538-9.643
		c0-5.903,3.372-9.575,7.538-9.575c1.785,0,3.229,0.618,4.278,1.922v-1.613H83.976z M78.677,19.634c0-2.814-1.417-4.393-3.23-4.393
		s-3.23,1.578-3.23,4.393c0,2.848,1.417,4.461,3.23,4.461S78.677,22.481,78.677,19.634z"/>
	<path fill="#FFFFFF" d="M97.325,28.213c-0.935,0.721-2.323,1.063-3.74,1.063c-3.938,0-6.205-2.333-6.205-7.104V6.216h5.384v4.838
		h3.485v4.873h-3.485v6.177c0,1.372,0.623,2.128,1.587,2.128c0.595,0,1.189-0.206,1.644-0.584L97.325,28.213z"/>
	<path fill="#FF6A8D" d="M98.716,25.398c0-2.333,1.417-3.843,3.23-3.843c1.842,0,3.23,1.51,3.23,3.843
		c0,2.266-1.389,3.878-3.23,3.878C100.133,29.276,98.716,27.664,98.716,25.398z"/>
</g>
</svg>
